<svg id="svg" version="1.1" width="420px" height="420px" xmlns="http://www.w3.org/2000/svg" xmlns:xlink="http://www.w3.org/1999/xlink" style="display: block;" viewBox="0 30 420 420"><g id="svgg"><path id="path0" d="M0.000 200.000 L 0.000 400.000 200.000 400.000 L 400.000 400.000 400.000 200.000 L 400.000 0.000 200.000 0.000 L 0.000 0.000 0.000 200.000 M104.961 28.347 C 113.677 30.704,123.800 33.456,130.000 35.154 C 133.520 36.118,139.460 37.738,143.200 38.754 C 146.940 39.770,152.880 41.390,156.400 42.354 C 159.920 43.318,165.860 44.938,169.600 45.954 C 173.340 46.970,179.280 48.591,182.800 49.555 C 194.277 52.700,208.823 56.612,214.800 58.162 C 217.440 58.846,219.732 59.522,219.894 59.664 C 220.188 59.922,215.565 69.188,207.485 84.540 C 202.301 94.387,202.309 93.597,207.400 93.614 C 252.173 93.763,296.645 130.357,307.523 176.000 C 311.383 192.199,311.235 215.526,307.189 228.400 C 298.955 254.601,286.544 273.156,267.600 287.588 C 262.052 291.814,260.123 293.005,250.777 297.976 C 242.883 302.175,224.426 307.991,218.950 308.004 C 214.468 308.016,211.606 309.617,209.282 313.413 C 208.007 315.496,204.699 320.882,201.931 325.383 C 199.162 329.883,197.165 333.731,197.493 333.934 C 198.062 334.286,209.854 338.454,219.200 341.608 C 221.620 342.425,228.280 344.762,234.000 346.801 C 239.720 348.840,245.300 350.811,246.400 351.181 C 247.500 351.550,254.139 353.856,261.154 356.306 C 268.169 358.755,274.070 360.597,274.267 360.399 C 274.579 360.088,269.564 348.058,263.521 334.621 C 260.040 326.883,259.990 327.060,266.345 324.588 C 269.438 323.385,272.325 322.400,272.760 322.400 C 275.864 322.400,296.219 307.673,304.697 299.293 C 334.017 270.315,350.753 222.194,344.774 184.066 C 341.577 163.677,339.190 155.694,331.337 139.134 C 325.326 126.459,305.805 99.362,302.544 99.167 C 302.245 99.150,299.660 96.971,296.800 94.326 C 290.753 88.733,279.056 80.823,270.203 76.339 C 263.221 72.802,263.167 72.665,266.225 66.203 L 268.400 61.606 277.179 66.074 C 329.429 92.667,365.523 159.001,357.554 213.785 C 354.904 232.007,354.001 236.134,349.868 248.932 C 339.299 281.661,313.421 313.786,283.800 330.948 C 276.650 335.090,276.713 334.872,280.400 342.855 C 281.940 346.189,283.200 349.035,283.200 349.179 C 283.200 349.323,284.640 352.529,286.400 356.303 C 288.160 360.077,289.600 363.339,289.600 363.552 C 289.600 363.765,291.220 367.406,293.200 371.643 C 298.418 382.810,298.511 382.630,289.200 379.309 C 285.680 378.054,279.920 376.046,276.400 374.847 C 272.880 373.649,269.280 372.356,268.400 371.974 C 267.520 371.593,265.180 370.747,263.200 370.096 C 261.220 369.444,253.300 366.701,245.600 364.001 C 237.900 361.301,229.620 358.426,227.200 357.613 C 224.780 356.800,216.500 353.919,208.800 351.212 C 201.100 348.505,192.100 345.395,188.800 344.301 C 185.500 343.207,181.815 341.856,180.612 341.299 L 178.424 340.287 182.012 334.468 C 183.985 331.267,185.600 328.539,185.600 328.406 C 185.600 328.273,188.123 324.100,191.206 319.133 C 197.538 308.934,197.585 309.190,189.262 308.391 C 111.463 300.922,69.077 207.976,113.201 141.600 C 124.877 124.036,153.899 100.800,164.161 100.800 C 164.777 100.800,165.622 100.503,166.040 100.139 C 167.444 98.918,181.485 95.200,184.692 95.200 C 188.061 95.200,189.080 93.863,196.244 80.040 L 202.487 67.993 200.391 67.197 C 199.239 66.759,197.796 66.400,197.186 66.400 C 196.575 66.400,195.248 66.077,194.238 65.683 C 192.263 64.913,191.417 64.674,175.600 60.408 C 169.880 58.865,163.940 57.244,162.400 56.806 C 160.860 56.367,156.180 55.104,152.000 54.000 C 147.820 52.896,143.140 51.637,141.600 51.204 C 127.392 47.208,124.326 46.400,123.377 46.400 C 122.344 46.400,124.583 50.993,135.805 71.892 C 138.697 77.277,139.184 78.728,138.299 79.324 C 135.271 81.364,129.363 84.053,128.537 83.767 C 127.584 83.438,121.303 87.417,115.721 91.885 C 97.895 106.157,80.160 130.033,73.469 148.767 C 72.599 151.205,71.564 153.920,71.171 154.800 C 60.349 179.001,60.369 222.608,71.214 249.200 C 83.918 280.351,100.114 300.726,126.200 318.378 C 134.658 324.100,134.431 323.586,131.000 329.257 C 127.749 334.630,128.317 334.689,118.386 327.952 C 80.089 301.973,56.488 263.051,51.230 217.200 C 49.271 200.118,50.808 181.781,55.891 161.600 C 59.330 147.946,73.208 118.313,78.371 113.600 C 78.612 113.380,80.399 111.040,82.342 108.400 C 87.487 101.409,103.296 85.992,111.475 79.991 C 123.016 71.522,122.023 72.609,120.668 69.932 C 117.663 63.996,103.528 36.745,101.486 32.951 C 98.060 26.582,98.124 26.497,104.961 28.347 M192.800 106.376 C 111.995 114.778,78.392 215.903,138.000 271.290 C 196.872 325.994,292.170 288.056,297.984 207.600 C 302.197 149.302,251.274 100.296,192.800 106.376 M208.632 143.000 L 208.865 149.600 211.832 149.609 C 219.158 149.633,227.580 153.369,233.052 159.022 L 236.105 162.175 231.973 165.143 C 226.504 169.072,225.841 169.259,224.198 167.337 C 220.016 162.446,200.043 160.124,191.794 163.570 C 173.138 171.365,180.514 194.393,201.670 194.405 C 222.522 194.416,233.970 201.081,238.238 215.693 C 242.565 230.505,230.925 248.787,215.866 250.830 C 208.301 251.857,208.886 251.163,208.630 259.408 L 208.400 266.800 202.800 266.800 L 197.200 266.800 196.970 259.408 C 196.707 250.958,197.421 251.606,187.600 250.896 C 181.021 250.421,176.512 248.442,171.520 243.841 C 167.087 239.755,167.064 239.895,172.804 235.997 L 177.608 232.735 179.648 234.775 C 184.446 239.573,209.964 241.496,217.541 237.630 C 225.077 233.786,228.828 224.959,225.927 217.898 C 222.618 209.842,217.583 207.200,205.542 207.200 C 185.997 207.200,176.043 201.268,170.641 186.400 C 169.372 182.906,169.296 173.621,170.512 170.638 C 173.014 164.502,173.861 163.083,177.302 159.255 C 181.582 154.495,185.760 152.101,192.000 150.833 L 196.400 149.939 196.617 143.970 C 196.920 135.626,196.706 135.888,202.989 136.163 L 208.400 136.400 208.632 143.000 " stroke="none" fill="#ffffff" fill-rule="evenodd"></path><path id="path1" d="M99.200 27.951 C 99.200 28.364,100.229 30.614,101.486 32.951 C 103.528 36.745,117.663 63.996,120.668 69.932 C 122.023 72.609,123.016 71.522,111.475 79.991 C 103.296 85.992,87.487 101.409,82.342 108.400 C 80.399 111.040,78.612 113.380,78.371 113.600 C 73.208 118.313,59.330 147.946,55.891 161.600 C 47.863 193.477,48.680 220.504,58.564 250.000 C 69.295 282.021,89.511 308.365,118.386 327.952 C 128.317 334.689,127.749 334.630,131.000 329.257 C 134.431 323.586,134.658 324.100,126.200 318.378 C 100.114 300.726,83.918 280.351,71.214 249.200 C 60.369 222.608,60.349 179.001,71.171 154.800 C 71.564 153.920,72.599 151.205,73.469 148.767 C 80.160 130.033,97.895 106.157,115.721 91.885 C 121.303 87.417,127.584 83.438,128.537 83.767 C 129.363 84.053,135.271 81.364,138.299 79.324 C 139.184 78.728,138.697 77.277,135.805 71.892 C 124.583 50.993,122.344 46.400,123.377 46.400 C 124.326 46.400,127.392 47.208,141.600 51.204 C 143.140 51.637,147.820 52.896,152.000 54.000 C 156.180 55.104,160.860 56.367,162.400 56.806 C 163.940 57.244,169.880 58.865,175.600 60.408 C 191.417 64.674,192.263 64.913,194.238 65.683 C 195.248 66.077,196.575 66.400,197.186 66.400 C 197.796 66.400,199.239 66.759,200.391 67.197 L 202.487 67.993 196.244 80.040 C 189.080 93.863,188.061 95.200,184.692 95.200 C 181.485 95.200,167.444 98.918,166.040 100.139 C 165.622 100.503,164.777 100.800,164.161 100.800 C 153.899 100.800,124.877 124.036,113.201 141.600 C 69.077 207.976,111.463 300.922,189.262 308.391 C 197.585 309.190,197.538 308.934,191.206 319.133 C 188.123 324.100,185.600 328.273,185.600 328.406 C 185.600 328.539,183.985 331.267,182.012 334.468 L 178.424 340.287 180.612 341.299 C 181.815 341.856,185.500 343.207,188.800 344.301 C 192.100 345.395,201.100 348.505,208.800 351.212 C 216.500 353.919,224.780 356.800,227.200 357.613 C 229.620 358.426,237.900 361.301,245.600 364.001 C 253.300 366.701,261.220 369.444,263.200 370.096 C 265.180 370.747,267.520 371.593,268.400 371.974 C 269.280 372.356,272.880 373.649,276.400 374.847 C 279.920 376.046,285.680 378.054,289.200 379.309 C 298.511 382.630,298.418 382.810,293.200 371.643 C 291.220 367.406,289.600 363.765,289.600 363.552 C 289.600 363.339,288.160 360.077,286.400 356.303 C 284.640 352.529,283.200 349.323,283.200 349.179 C 283.200 349.035,281.940 346.189,280.400 342.855 C 276.713 334.872,276.650 335.090,283.800 330.948 C 320.950 309.423,349.296 267.696,355.907 224.800 C 358.786 206.118,358.998 201.218,357.529 187.200 C 353.429 148.059,336.260 113.408,308.376 87.996 C 297.355 77.953,289.047 72.114,277.179 66.074 L 268.400 61.606 266.225 66.203 C 263.167 72.665,263.221 72.802,270.203 76.339 C 279.056 80.823,290.753 88.733,296.800 94.326 C 299.660 96.971,302.245 99.150,302.544 99.167 C 305.805 99.362,325.326 126.459,331.337 139.134 C 339.190 155.694,341.577 163.677,344.774 184.066 C 350.753 222.194,334.017 270.315,304.697 299.293 C 296.219 307.673,275.864 322.400,272.760 322.400 C 272.325 322.400,269.438 323.385,266.345 324.588 C 259.990 327.060,260.040 326.883,263.521 334.621 C 269.564 348.058,274.579 360.088,274.267 360.399 C 274.070 360.597,268.169 358.755,261.154 356.306 C 254.139 353.856,247.500 351.550,246.400 351.181 C 245.300 350.811,239.720 348.840,234.000 346.801 C 228.280 344.762,221.620 342.425,219.200 341.608 C 209.854 338.454,198.062 334.286,197.493 333.934 C 197.165 333.731,199.162 329.883,201.931 325.383 C 204.699 320.882,208.007 315.496,209.282 313.413 C 211.606 309.617,214.468 308.016,218.950 308.004 C 224.426 307.991,242.883 302.175,250.777 297.976 C 260.123 293.005,262.052 291.814,267.600 287.588 C 286.544 273.156,298.955 254.601,307.189 228.400 C 311.235 215.526,311.383 192.199,307.523 176.000 C 296.645 130.357,252.173 93.763,207.400 93.614 C 202.309 93.597,202.301 94.387,207.485 84.540 C 215.565 69.188,220.188 59.922,219.894 59.664 C 219.732 59.522,217.440 58.846,214.800 58.162 C 208.823 56.612,194.277 52.700,182.800 49.555 C 179.280 48.591,173.340 46.970,169.600 45.954 C 165.860 44.938,159.920 43.318,156.400 42.354 C 152.880 41.390,146.940 39.770,143.200 38.754 C 139.460 37.738,133.520 36.118,130.000 35.154 C 123.800 33.456,113.677 30.704,104.961 28.347 C 99.977 26.999,99.200 26.945,99.200 27.951 M219.200 107.264 C 298.054 121.185,325.658 220.679,265.319 273.489 C 210.413 321.543,124.134 291.986,109.181 220.000 C 95.792 155.547,154.123 95.776,219.200 107.264 M197.206 136.963 C 197.001 137.533,196.736 140.686,196.617 143.970 L 196.400 149.939 192.000 150.833 C 185.760 152.101,181.582 154.495,177.302 159.255 C 173.861 163.083,173.014 164.502,170.512 170.638 C 169.296 173.621,169.372 182.906,170.641 186.400 C 176.043 201.268,185.997 207.200,205.542 207.200 C 224.596 207.200,233.092 219.811,222.944 233.030 C 216.675 241.197,187.255 242.382,179.648 234.775 L 177.608 232.735 172.804 235.997 C 167.064 239.895,167.087 239.755,171.520 243.841 C 176.512 248.442,181.021 250.421,187.600 250.896 C 197.421 251.606,196.707 250.958,196.970 259.408 L 197.200 266.800 202.800 266.800 L 208.400 266.800 208.630 259.408 C 208.886 251.163,208.301 251.857,215.866 250.830 C 230.925 248.787,242.565 230.505,238.238 215.693 C 233.970 201.081,222.522 194.416,201.670 194.405 C 180.514 194.393,173.138 171.365,191.794 163.570 C 200.043 160.124,220.016 162.446,224.198 167.337 C 225.841 169.259,226.504 169.072,231.973 165.143 L 236.105 162.175 233.052 159.022 C 227.580 153.369,219.158 149.633,211.832 149.609 L 208.865 149.600 208.632 143.000 L 208.400 136.400 202.989 136.163 C 199.108 135.993,197.473 136.220,197.206 136.963 " stroke="none" fill="#f39b12" fill-rule="evenodd"></path></g></svg>