<?xml version="1.0" encoding="UTF-8"?>
<!DOCTYPE svg PUBLIC "-//W3C//DTD SVG 1.0//EN" "http://www.w3.org/TR/2001/REC-SVG-20010904/DTD/svg10.dtd">
<!-- Creator: CorelDRAW X8 -->
<svg xmlns="http://www.w3.org/2000/svg" xml:space="preserve" width="420px" height="420px" version="1.0" style="shape-rendering:geometricPrecision; text-rendering:geometricPrecision; image-rendering:optimizeQuality; fill-rule:evenodd; clip-rule:evenodd"
viewBox="0 0 700069 700069"
 xmlns:xlink="http://www.w3.org/1999/xlink">
 <defs>
  <style type="text/css">
   <![CDATA[
    .fil1 {fill:none}
    .fil0 {fill:#ffffff;fill-rule:nonzero}
   ]]>
  </style>
   <clipPath id="id0">
    <path d="M0 0l700069 0 0 700069 -700069 0 0 -700069z"/>
   </clipPath>
 </defs>
 <g id="Слой_x0020_1">
  <metadata id="CorelCorpID_0Corel-Layer"/>
  <g>
  </g>
  <g style="clip-path:url(#id0)">
   <g>
    <path class="fil0" d="M624437 351442c0,75770 -30715,144373 -80373,194029 -49657,49658 -118259,80373 -194030,80373 -37414,0 -73892,-7579 -107521,-21901 -33624,-14319 -64359,-35387 -90290,-62364l14376 -13829c24046,25016 52548,44554 83727,57831 31109,13249 64935,20260 99708,20260 70253,0 133856,-28475 179889,-74510 46035,-46034 74511,-109637 74511,-179889l20003 0zm-548805 0c0,-75771 30715,-144373 80373,-194030 49656,-49658 118259,-80373 194029,-80373 37641,0 73527,7588 106204,21316 33897,14243 64355,35130 89746,61035l-14220 13984c-23510,-23985 -51764,-43347 -83260,-56581 -30277,-12720 -63548,-19751 -98470,-19751 -70252,0 -133855,28476 -179889,74511 -46035,46033 -74510,109636 -74510,179889l-20003 0z"/>
    <polygon class="fil0" points="549432,84226 549432,177905 455753,177905 455753,157901 529429,157901 529429,84226 "/>
    <polygon class="fil0" points="143851,613731 143851,520052 237530,520052 237530,540055 163855,540055 163855,613731 "/>
    <path class="fil0" d="M218832 339466c2102,2815 4929,5137 8223,6735 3257,1581 7015,2477 11045,2477l22607 8c4243,-8 7525,-24 7771,-39 5664,-392 11338,-3113 15549,-7248 3722,-3657 6185,-8339 6223,-13303l-40 0 0 -149c0,-5468 -2455,-10465 -6414,-14119 -4213,-3887 -10052,-6309 -16509,-6353l0 40 -19017 0c-11731,0 -22406,-4441 -30173,-11617 -7996,-7383 -12943,-17624 -12943,-28968 0,-11344 4947,-21587 12943,-28969 7767,-7175 18442,-11616 30173,-11616 720,0 192,25 17142,67l7131 34c6567,389 12756,2171 18219,5030 5745,3009 10665,7170 14367,12129l-16017 11955c-1978,-2649 -4570,-4855 -7570,-6425 -2999,-1569 -6442,-2552 -10132,-2766l-5998 -34 -17142 13c-6556,0 -12444,2408 -16656,6301 -3988,3682 -6457,8736 -6457,14281 0,5545 2469,10598 6457,14281 4212,3892 10100,6300 16656,6300l19017 0 40 40c11671,61 22284,4482 29986,11589 7965,7351 12900,17530 12900,28807l0 149 -39 40c-56,10697 -4869,20319 -12162,27483 -7506,7369 -17794,12230 -28205,12951l-9100 40c-20546,48 -22246,71 -22607,71 -7073,0 -13788,-1630 -19717,-4509 -6241,-3029 -11589,-7423 -15568,-12751l16017 -11955z"/>
    <polygon class="fil0" points="265519,209359 265519,236595 245516,236595 245516,209359 "/>
    <polygon class="fil0" points="265519,360163 265519,387382 245516,387382 245516,360163 "/>
    <path class="fil0" d="M425733 511319c-3969,5752 -9210,10564 -15308,14020 -5943,3371 -12690,5467 -19860,5918l-7801 41c-16659,47 -18320,72 -18795,72 -12784,0 -24363,-5185 -32743,-13565l0 -38c-8380,-8383 -13565,-19947 -13565,-32705l0 -39087c0,-12784 5185,-24363 13565,-32743 8380,-8380 19959,-13565 32743,-13565 477,0 2134,25 18792,72l7804 40c7170,452 13917,2548 19860,5919 6098,3456 11339,8268 15308,14020l-16409 11329c-2262,-3280 -5257,-6029 -8744,-8005 -3347,-1898 -7174,-3081 -11265,-3339 -439,-17 -3137,-32 -6554,-40l-18792 7c-7266,0 -13845,2946 -18602,7703 -4757,4757 -7703,11336 -7703,18602l0 39087c0,7281 2938,13866 7684,18621l19 -18c4757,4757 11336,7702 18602,7702l18795 7c3520,-10 6268,-22 6551,-41 4091,-256 7918,-1440 11265,-3338 3487,-1976 6482,-4724 8744,-8004l16409 11328z"/>
    <path class="fil0" d="M359684 490522l-69566 0 0 -20003 69566 0 0 20003zm11251 -30004l-69567 0 0 -20003 69567 0 0 20003z"/>
    <path class="fil0" d="M491700 356287l-22689 -26c-15743,-20 -34157,-45 -39271,-34l-9976 26 18 -12828c4,-2416 10,-4698 -9,-6409l-52 -4619 3530 -3038c14149,-12169 10721,-19250 6340,-28295 -4087,-8436 -8686,-17931 -8686,-31386 0,-9542 4317,-18754 10624,-25681 6663,-7324 15867,-12321 24852,-12699 8014,-338 15245,832 21825,4096 6684,3317 12370,8597 17120,16397l-17033 10393c-2690,-4417 -5640,-7274 -8915,-8899 -3381,-1677 -7456,-2263 -12215,-2064 -3522,148 -7577,2597 -10867,6213 -3198,3513 -5388,7938 -5388,12244 0,8980 3524,16253 6653,22714 7074,14604 12804,26445 -2854,43916l46993 55 0 19924z"/>
    <path class="fil0" d="M468278 301364l-22690 -25c-15742,-20 -34156,-46 -39272,-34l0 -19924c5116,-12 23530,14 39272,34l22690 25 0 19924z"/>
   </g>
  </g>
  <polygon class="fil1" points="0,0 700069,0 700069,700069 0,700069 "/>
 </g>
</svg>
