<?xml version="1.0" encoding="UTF-8"?>
<!DOCTYPE svg PUBLIC "-//W3C//DTD SVG 1.0//EN" "http://www.w3.org/TR/2001/REC-SVG-20010904/DTD/svg10.dtd">
<!-- Creator: CorelDRAW X8 -->
<svg xmlns="http://www.w3.org/2000/svg" xml:space="preserve" width="420px" height="420px" version="1.0" style="shape-rendering:geometricPrecision; text-rendering:geometricPrecision; image-rendering:optimizeQuality; fill-rule:evenodd; clip-rule:evenodd"
viewBox="0 80000 700069 700069"
 xmlns:xlink="http://www.w3.org/1999/xlink">
 <defs>
  <style type="text/css">
   <![CDATA[
    .fil1 {fill:none}
    .fil0 {fill:#F39B12;fill-rule:nonzero}
   ]]>
  </style>
   <clipPath id="id0">
    <path d="M0 0l700069 0 0 700069 -700069 0 0 -700069z"/>
   </clipPath>
 </defs>
 <g id="Слой_x0020_1">
  <metadata id="CorelCorpID_0Corel-Layer"/>
  <g>
  </g>
  <g style="clip-path:url(#id0)">
   <g>
    <path class="fil0" d="M312582 79636c58480,0 111430,23707 149757,62034 38326,38327 62033,91276 62033,149756 0,58481 -23707,111429 -62033,149755 -38327,38327 -91277,62034 -149757,62034 -58480,0 -111430,-23707 -149756,-62034 -38327,-38326 -62034,-91274 -62034,-149755 0,-58480 23707,-111429 62034,-149756 38326,-38327 91276,-62034 149756,-62034zm135616 76174c-34705,-34705 -82654,-56171 -135616,-56171 -52962,0 -100911,21466 -135616,56171 -34705,34706 -56171,82654 -56171,135616 0,52962 21466,100910 56171,135615 34705,34705 82654,56171 135616,56171 52962,0 100911,-21466 135616,-56171 34705,-34705 56171,-82653 56171,-135615 0,-52962 -21466,-100910 -56171,-135616z"/>
    <path class="fil0" d="M439649 446711l40545 41370 18953 -9464 104440 106974 -42195 38677 -104436 -105965 8923 -16334 -40450 -41273 14220 -13985zm45743 61113l-3838 7024 80567 81746 12841 -11770 -79894 -81831 -9676 4831z"/>
    <polygon class="fil0" points="174350,308959 174350,375529 154346,375529 154346,308959 "/>
    <polygon class="fil0" points="216702,279894 216702,375529 196699,375529 196699,279894 "/>
    <polygon class="fil0" points="259054,247078 259054,375529 239051,375529 239051,247078 "/>
    <polygon class="fil0" points="301408,261142 301408,375529 281405,375529 281405,261142 "/>
    <polygon class="fil0" points="343766,207698 343766,375529 323763,375529 323763,207698 "/>
    <polygon class="fil0" points="386113,234889 386113,375529 366110,375529 366110,234889 "/>
    <polygon class="fil0" points="428467,264893 428467,375529 408464,375529 408464,264893 "/>
    <polygon class="fil0" points="470825,265830 470825,375529 450822,375529 450822,265830 "/>
   </g>
  </g>
  <polygon class="fil1" points="0,0 700069,0 700069,700069 0,700069 "/>
 </g>
</svg>
