<?xml version="1.0" encoding="UTF-8"?>
<!DOCTYPE svg PUBLIC "-//W3C//DTD SVG 1.0//EN" "http://www.w3.org/TR/2001/REC-SVG-20010904/DTD/svg10.dtd">
<!-- Creator: CorelDRAW X8 -->
<svg xmlns="http://www.w3.org/2000/svg" xml:space="preserve" width="420px" height="420px" version="1.0" style="shape-rendering:geometricPrecision; text-rendering:geometricPrecision; image-rendering:optimizeQuality; fill-rule:evenodd; clip-rule:evenodd"
viewBox="0 0 700069 700069"
 xmlns:xlink="http://www.w3.org/1999/xlink">
 <defs>
  <style type="text/css">
   <![CDATA[
    .fil1 {fill:none}
    .fil0 {fill:#ffffff;fill-rule:nonzero}
   ]]>
  </style>
   <clipPath id="id0">
    <path d="M0 0l700069 0 0 700069 -700069 0 0 -700069z"/>
   </clipPath>
 </defs>
 <g id="Слой_x0020_1">
  <metadata id="CorelCorpID_0Corel-Layer"/>
  <g>
  </g>
  <g style="clip-path:url(#id0)">
   <g>
    <path class="fil0" d="M254948 93047l241475 0 0 513973 -251477 0 0 -513973 10002 0zm221472 20003l-211470 0 0 473967 211470 0 0 -473967z"/>
    <polygon class="fil0" points="296111,230261 440500,230261 440500,250265 296111,250265 "/>
    <polygon class="fil0" points="296111,417591 440500,417591 440500,437594 296111,437594 "/>
    <path class="fil0" d="M477053 464312c1316,-42127 19785,-71976 44596,-92568 35387,-29370 83869,-39418 112723,-39420l8580 0 1304 8478c6174,40126 -2761,79452 -31515,110482l-19 -19c-24608,26545 -63636,46666 -120006,55381l-3047 -19689c51587,-7976 86782,-25835 108461,-49230l0 -40c22117,-23868 30242,-53892 27430,-85123 -25954,1782 -63273,11336 -91176,34494 -20808,17269 -36300,42347 -37407,77801l-19924 -547z"/>
    <path class="fil0" d="M476767 355262c2543,-30607 16627,-55938 35074,-75920 25185,-27280 58766,-44572 81575,-51485l8180 -2477 3695 7712c9613,20061 14817,41240 14498,62568 -300,20164 -5497,40361 -16502,59762l-17344 -9846c9287,-16371 13671,-33316 13922,-50151 230,-15385 -2955,-30776 -8974,-45655 -19569,7432 -44766,21863 -64363,43089 -15721,17030 -27710,38443 -29837,64044l-19924 -1641z"/>
    <polygon class="fil0" points="296111,288728 440500,288728 440500,308731 296111,308731 "/>
    <path class="fil0" d="M179019 236233l86547 0 0 370787 -164994 0 0 -237446 72544 -133341 5903 0zm66544 20003l-60642 0 -64346 118272 0 212509 124988 0 0 -330781z"/>
    <path class="fil0" d="M493893 550318c25789,20054 53642,24364 79481,20471 34209,-5157 64982,-24324 83411,-40947 -13190,-15434 -29138,-27242 -47450,-33878 -19177,-6949 -41152,-8290 -65515,-2264l-4765 -19377c28410,-7026 54286,-5371 77078,2888 24778,8979 45689,25690 62102,47470l5136 6816 -5917 6115c-19264,19919 -57719,46404 -101112,52945 -30752,4635 -63934,-521 -94716,-24457l12267 -15782z"/>
    <path class="fil0" d="M176113 183896l89697 0 0 74383 -99699 0 0 -74383 10002 0zm69694 20003l-59693 0 0 34377 59693 0 0 -34377z"/>
    <path class="fil0" d="M110894 395573c17627,-156 35305,2326 51379,7445 14183,4514 27170,11096 37877,19746l66655 -1321 -1142 121908 -165688 -862c396,-48942 706,-97886 1117,-146828l9802 -88zm45363 26430c-11103,-3535 -23147,-5631 -35405,-6288l-793 106954 125865 654 764 -81550 -53771 1067 -2922 -2578c-9102,-8035 -20754,-14126 -33738,-18259z"/>
   </g>
  </g>
  <polygon class="fil1" points="0,0 700069,0 700069,700069 0,700069 "/>
 </g>
</svg>
