<?xml version="1.0" encoding="UTF-8"?>
<!DOCTYPE svg PUBLIC "-//W3C//DTD SVG 1.0//EN" "http://www.w3.org/TR/2001/REC-SVG-20010904/DTD/svg10.dtd">
<!-- Creator: CorelDRAW X8 -->
<svg xmlns="http://www.w3.org/2000/svg" xml:space="preserve" width="420px" height="420px" version="1.0" style="shape-rendering:geometricPrecision; text-rendering:geometricPrecision; image-rendering:optimizeQuality; fill-rule:evenodd; clip-rule:evenodd"
viewBox="0 100000 700069 700069"
 xmlns:xlink="http://www.w3.org/1999/xlink">
 <defs>
  <style type="text/css">
   <![CDATA[
    .fil1 {fill:none}
    .fil0 {fill:#F39B12;fill-rule:nonzero}
   ]]>
  </style>
   <clipPath id="id0">
    <path d="M0 0l700069 0 0 700069 -700069 0 0 -700069z"/>
   </clipPath>
 </defs>
 <g id="Слой_x0020_1">
  <metadata id="CorelCorpID_0Corel-Layer"/>
  <g>
  </g>
  <g style="clip-path:url(#id0)">
   <g>
    <path class="fil0" d="M127803 287317c16118,-60156 55071,-108099 105031,-137006 49971,-28914 110949,-38784 171105,-22787l-5077 19297c-54872,-14591 -110476,-5598 -156026,20757 -45536,26348 -81042,70053 -95736,124896l-19297 -5157zm115336 259555c-19575,-9983 -37293,-22656 -52808,-37427 -15780,-15024 -29267,-32254 -40093,-51058l17268 -9923c9829,17074 22132,32774 36578,46526 14082,13408 30227,24943 48118,34067l-9063 17815zm320932 -142671c-5240,19561 -12918,37859 -22617,54648 -9989,17290 -22138,32969 -35991,46769l-14064 -14141c12599,-12551 23666,-26841 32788,-42630 8808,-15248 15796,-31921 20587,-49803l19297 5157z"/>
    <path class="fil0" d="M124149 477882c-17105,-29625 -28455,-62599 -32996,-97089 -4372,-33210 -2433,-67783 6755,-102080l2587 -9653 276780 74163 -248154 143272 -4972 -8613zm-13228 -99666c3749,28484 12550,55872 25700,80952l188985 -109111 -210790 -56480c-6427,28553 -7515,57131 -3895,84639z"/>
    <path class="fil0" d="M533749 529925c-32636,32573 -73401,56086 -117922,68010 -43001,11515 -89513,12237 -135594,-111 -8960,-2400 -17661,-5230 -26082,-8452 -8524,-3262 -16872,-6981 -25015,-11115l-8944 -4538 125305 -246227 195349 195351 -7097 7082zm-123078 48712c37939,-10160 72920,-29409 101771,-55917l-161621 -161622 -103661 203696c4587,2092 9289,4063 14101,5904 7843,3001 15893,5623 24128,7829 42588,11410 85560,10747 125282,110z"/>
    <path class="fil0" d="M416553 93577c70004,18757 125782,64119 159367,122289 33592,58182 44992,129173 26239,199169l-2586 9654 -263178 -70517 70518 -263178 9640 2583zm142099 132290c-29483,-51064 -77477,-91443 -137668,-110212l-60126 224392 224392 60124c13838,-61515 2873,-123259 -26598,-174304z"/>
    <path class="fil0" d="M404882 131060l41292 -18689 2049 4550 -41292 18689 -2049 -4550zm157045 271202l34674 -15605 2049 4550 -34674 15605 -2049 -4550zm-29747 -7972l67215 -30260 2029 4550 -67195 30260 -2049 -4550zm-29724 -7964l50619 -22836 47061 -21168 2030 4550 -47042 21168 -50619 22836 -2049 -4550zm-29696 -7957c22267,-10079 44410,-20078 65699,-29673 19183,-8646 39831,-17935 60611,-27270l2030 4550 -60591 27270c-21289,9595 -43433,19594 -65700,29673l-2049 -4550zm-29664 -7947c24450,-11091 49087,-22232 72947,-32998 26773,-12081 54384,-24506 80311,-36153l2030 4550c-23265,10451 -50270,22607 -80291,36154 -23860,10765 -48497,21906 -72947,32997l-2050 -4550zm-29626 -7940c30690,-13953 62231,-28231 92657,-41965 28858,-13025 58467,-26352 86004,-38724l2030 4550c-24963,11215 -53988,24283 -85985,38724 -30425,13734 -61967,28012 -92656,41965l-2050 -4550zm-29595 -7916c31408,-14321 63105,-28701 93486,-42438 37361,-16893 75290,-33972 109116,-49170l2030 4550c-32040,14396 -69389,31215 -109097,49170 -32104,14515 -64079,29019 -93466,42418l-2069 -4530zm-29532 -7914c37195,-17019 76628,-34930 114815,-52201 37655,-17031 75955,-34280 110259,-49695l2030 4550c-32528,14617 -70305,31634 -110239,49695 -39403,17821 -79086,35841 -114795,52181l-2070 -4530zm-1709 -20622c36155,-16539 74241,-33838 111157,-50537 36382,-16457 73541,-33197 107195,-48325l2030 4551c-31821,14303 -68454,30810 -107175,48324 -38188,17274 -76536,34688 -111138,50517l-2069 -4530zm6536 -24394c30711,-14028 62097,-28287 92546,-42067 36994,-16746 74967,-33858 109471,-49372l2030 4550c-32805,14750 -70231,31620 -109451,49372 -32015,14489 -63657,28859 -92527,42048l-2069 -4531zm6533 -24384c28728,-13105 57498,-26167 85215,-38710 34315,-15527 68224,-30814 99061,-44685l2050 4550c-30837,13871 -64746,29158 -99061,44685 -29537,13367 -58604,26559 -85196,38690l-2069 -4530zm6532 -24378c28533,-13001 56806,-25826 83823,-38043 27990,-12658 55557,-25089 81240,-36646l2050 4550c-25683,11557 -53250,23988 -81241,36646 -28968,13100 -57544,26060 -83803,38023l-2069 -4530zm6530 -24380c21211,-9653 44254,-20103 67980,-30836 26111,-11813 51939,-23466 76302,-34436l2050 4550c-24364,10970 -50191,22623 -76302,34436 -21661,9798 -44451,20137 -67961,30836l-2069 -4550zm6539 -24368c20344,-9249 41048,-18634 61535,-27898 20486,-9265 40763,-18417 60255,-27199l2049 4550c-19491,8782 -39768,17934 -60255,27199 -20486,9264 -41190,18649 -61535,27898l-2049 -4550zm6527 -24360l46844 -21233 50515 -22814 2049 4550 -50514 22814 -46844 21233 -2050 -4550zm6526 -24355l34454 -15612 36232 -16373 2050 4550 -36232 16373 -34454 15612 -2050 -4550z"/>
   </g>
  </g>
  <polygon class="fil1" points="0,0 700069,0 700069,700069 0,700069 "/>
 </g>
</svg>
